<?xml version="1.0" encoding="UTF-8"?>
<svg version="1.1" xmlns="http://www.w3.org/2000/svg" width="29" height="29">
<path d="M0 0 C0.8765625 -0.020625 1.753125 -0.04125 2.65625 -0.0625 C3.92082031 -0.07023438 3.92082031 -0.07023438 5.2109375 -0.078125 C5.9848584 -0.0874707 6.7587793 -0.09681641 7.55615234 -0.10644531 C10.17685836 0.34508062 11.04625158 1.1404708 12.625 3.25 C13.03562354 6.53498832 13.2421336 8.40845419 11.25 11.125 C9.625 12.25 9.625 12.25 7.625 12.25 C7.50125 12.889375 7.3775 13.52875 7.25 14.1875 C7.04375 14.868125 6.8375 15.54875 6.625 16.25 C3.77661879 17.6741906 1.29712092 17.41995508 -1.875 17.4375 C-3.0403125 17.45167969 -4.205625 17.46585938 -5.40625 17.48046875 C-8.375 17.25 -8.375 17.25 -10.375 15.25 C-10.60546875 12.02734375 -10.60546875 12.02734375 -10.5625 8.1875 C-10.55605469 6.91777344 -10.54960937 5.64804688 -10.54296875 4.33984375 C-10.20889765 -1.80551072 -5.05512258 0.02947593 0 0 Z M-7.375 3.25 C-7.395625 4.879375 -7.41625 6.50875 -7.4375 8.1875 C-7.44910156 9.10402344 -7.46070313 10.02054688 -7.47265625 10.96484375 C-7.63449049 13.21593327 -7.63449049 13.21593327 -6.375 14.25 C-4.68891034 14.32205511 -2.99999341 14.33386068 -1.3125 14.3125 C-0.39339844 14.30347656 0.52570312 14.29445313 1.47265625 14.28515625 C2.18292969 14.27355469 2.89320312 14.26195312 3.625 14.25 C4.82772819 11.84454362 4.72571472 10.30003047 4.6875 7.625 C4.666875 6.18125 4.64625 4.7375 4.625 3.25 C0.665 3.25 -3.295 3.25 -7.375 3.25 Z M7.625 3.25 C7.625 4.9 7.625 6.55 7.625 8.25 C8.285 8.25 8.945 8.25 9.625 8.25 C9.295 6.6 8.965 4.95 8.625 3.25 C8.295 3.25 7.965 3.25 7.625 3.25 Z " fill="#1f5c3a" transform="translate(13.375,8.75)"/>
<path d="M0 0 C0.99 0 1.98 0 3 0 C3 1.65 3 3.3 3 5 C2.01 5 1.02 5 0 5 C0 3.35 0 1.7 0 0 Z " fill="#1f5c3a" transform="translate(6,3)"/>
<path d="M0 0 C0.99 0 1.98 0 3 0 C2.67 1.65 2.34 3.3 2 5 C1.34 5 0.68 5 0 5 C0 3.35 0 1.7 0 0 Z " fill="#1f5c3a" transform="translate(15,3)"/>
<path d="M0 0 C0.99 0 1.98 0 3 0 C3 1.65 3 3.3 3 5 C2.01 4.67 1.02 4.34 0 4 C0 2.68 0 1.36 0 0 Z " fill="#1f5c3a" transform="translate(10,3)"/>
</svg>
